# xmcd
#
# Track frame offsets: 
#        150
#        15429
#        34462
#        48714
#
# Disc length: 902 seconds
#
# Revision: 0
# Processed by: cddbd v1.5.2PL0 Copyright (c) Steve Scherf et al.
# Submitted via: ExactAudioCopy v0.95b4
#
DISCID=2e038404
DTITLE=Reilukerho - Kortit Jaossa [CDM)
DYEAR=2007
DGENRE=Hip-Hop
TTITLE0=Kortit Jaossa
TTITLE1=Ennen
TTITLE2=Reilubörsta'03 (feat. Davo ja Edu)
TTITLE3=Instrut Jaossa
EXTD=
EXTT0=
EXTT1=
EXTT2=
EXTT3=
PLAYORDER=
